#!OML:ASF E:\Style4\Style4.ASF
:FULLY-SPECIFIED
:DEGREES
892
root -0.192395 17.3802 -2.18056 5.25779 -19.1001 -0.842625
lowerback 15.9286 0.665238 -2.50608
upperback 13.9976 0.456207 -2.06754
thorax 6.11422 0.0474865 -0.851768
lowerneck 4.31683 2.47958 -4.8846
upperneck -8.58383 2.73327 -2.46433
head -3.58208 1.61733 -0.0786227
rclavicle -1.59028e-014 2.06736e-014
rhumerus 31.0743 14.7406 -70.9624
rradius 109.943
rwrist -53.6106
rhand -45.9313 25.0335
rfingers 7.12502
rthumb -18.6796 -4.08967
lclavicle -1.59028e-014 2.06736e-014
lhumerus 70.3807 -14.996 16.9054
lradius 104.363
lwrist 85.6482
lhand -25.9956 44.6778
lfingers 7.12502
lthumb 0.550026 74.6568
rfemur -31.1153 5.1095 21.7896
rtibia 40.4183
rfoot -13.9993 -6.58399
rtoes -8.32802
lfemur -27.6143 11.4088 -16.2158
ltibia 44.8339
lfoot -22.072 16.9854
ltoes -14.0326
893
root -0.223534 17.3823 -2.17636 5.3008 -19.1227 -1.08431
lowerback 15.9244 0.511416 -2.85016
upperback 13.9205 0.218909 -2.097
thorax 6.03104 -0.0977432 -0.665457
lowerneck 4.40147 2.86633 -5.10315
upperneck -8.5003 3.27752 -1.98663
head -3.59167 1.87427 0.0904401
rclavicle -2.62396e-014 -1.11319e-014
rhumerus 31.3513 14.322 -69.7358
rradius 109.779
rwrist -53.7791
rhand -45.3943 24.126
rfingers 7.12502
rthumb -18.1631 -5.04593
lclavicle -2.62396e-014 -1.11319e-014
lhumerus 70.3152 -15.5909 17.8145
lradius 104.342
lwrist 85.2844
lhand -26.4515 44.5235
lfingers 7.12502
lthumb 0.109697 74.5033
rfemur -30.9426 5.1039 22.1587
rtibia 40.2777
rfoot -14.033 -6.48801
rtoes -7.77315
lfemur -27.5244 11.4634 -15.8317
ltibia 44.8758
lfoot -22.0392 16.9534
ltoes -13.9646
894
root -0.253741 17.3827 -2.17142 5.30716 -19.1341 -1.29847
lowerback 15.9414 0.353239 -3.21686
upperback 13.8574 -0.027122 -2.14126
thorax 5.95666 -0.248119 -0.481345
lowerneck 4.4997 3.26075 -5.24591
upperneck -8.45312 3.83015 -1.56974
head -3.61828 2.13618 0.224643
rclavicle -2.62396e-014 3.65764e-014
rhumerus 31.5719 14.1583 -68.6414
rradius 109.703
rwrist -53.6724
rhand -44.8606 23.0586
rfingers 7.12502
rthumb -17.6495 -6.16039
lclavicle -2.62396e-014 3.65764e-014
lhumerus 70.2441 -16.1517 18.8006
lradius 104.261
lwrist 84.9357
lhand -26.6365 44.1528
lfingers 7.12502
lthumb -0.0690133 74.1325
rfemur -30.7388 5.03547 22.5199
rtibia 40.1482
rfoot -14.0568 -6.4078
rtoes -7.74321
lfemur -27.4125 11.4349 -15.4692
ltibia 44.9402
lfoot -22.1853 16.974
ltoes -13.9565
895
root -0.282989 17.3836 -2.1659 5.33836 -19.1426 -1.50594
lowerback 16.012 0.203032 -3.65406
upperback 13.7368 -0.275451 -2.13881
thorax 5.79401 -0.405329 -0.206291
lowerneck 4.47466 3.6596 -5.37683
upperneck -8.21779 4.39594 -1.21042
head -3.55711 2.40201 0.341109
rclavicle -2.54444e-014 -5.56597e-015
rhumerus 31.8468 13.9807 -67.3521
rradius 109.646
rwrist -53.7199
rhand -44.3694 21.6672
rfingers 7.12502
rthumb -17.1768 -7.59357
lclavicle -2.54444e-014 -5.56597e-015
lhumerus 70.0941 -16.769 19.9396
lradius 104.168
lwrist 84.6145
lhand -27.0897 43.8232
lfingers 7.12502
lthumb -0.506752 73.8023
rfemur -30.5606 4.96222 22.8673
rtibia 40.0111
rfoot -14.0777 -6.2987
rtoes -7.64816
lfemur -27.3403 11.3783 -15.1263
ltibia 45.0228
lfoot -22.303 16.9858
ltoes -14.0816
896
root -0.314365 17.3813 -2.16362 5.40903 -19.2024 -1.69122
lowerback 17.4871 0.140421 -5.6759
upperback 12.653 -0.725042 -1.17317
thorax 3.89794 -0.770553 2.03585
lowerneck 4.41894 4.37395 -6.25356
upperneck -7.05252 5.29201 -1.4681
head -3.18613 2.85386 0.381558
rclavicle -7.95139e-016 2.62396e-014
rhumerus 31.6697 15.4237 -64.9367
rradius 109.649
rwrist -54.1649
rhand -43.8222 20.2872
rfingers 7.12502
rthumb -16.65 -9.01868
lclavicle -7.95139e-016 2.62396e-014
lhumerus 68.0145 -18.1449 22.738
lradius 104.051
lwrist 84.0987
lhand -27.7719 43.8048
lfingers 7.12502
lthumb -1.16564 73.7814
rfemur -30.4505 4.98163 23.1804
rtibia 39.8727
rfoot -14.0661 -6.25006
rtoes -7.24222
lfemur -27.3505 11.43 -14.8131
ltibia 45.1259
lfoot -22.2296 17.0646
ltoes -14.5503
897
root -0.345728 17.382 -2.15765 5.50668 -19.2819 -1.98455
lowerback 17.6268 0.0784337 -6.35115
upperback 12.4322 -0.910989 -0.933754
thorax 3.62721 -0.906074 2.69936
lowerneck 4.40397 4.76734 -6.50097
upperneck -6.72147 5.82491 -1.26397
head -3.101 3.10949 0.470236
rclavicle -2.06736e-014 2.38542e-015
rhumerus 32.0405 15.5473 -63.3249
rradius 109.531
rwrist -54.1952
rhand -43.1883 19.2017
rfingers 7.12502
rthumb -16.0397 -10.1543
lclavicle -2.06736e-014 2.38542e-015
lhumerus 67.5155 -18.7468 24.3262
lradius 103.995
lwrist 83.6339
lhand -28.5364 43.885
lfingers 7.12502
lthumb -1.904 73.8562
rfemur -30.2997 5.02982 23.6002
rtibia 39.7214
rfoot -14.0497 -6.21501
rtoes -6.98724
lfemur -27.3345 11.5018 -14.3866
ltibia 45.2538
lfoot -22.2574 17.1314
ltoes -14.8195
898
root -0.375003 17.3837 -2.15199 5.59786 -19.3486 -2.28867
lowerback 17.6524 -2.87817e-006 -6.72519
upperback 12.3124 -1.06811 -0.864504
thorax 3.51435 -1.00546 3.00668
lowerneck 4.41048 5.08728 -6.62306
upperneck -6.48031 6.27179 -0.959242
head -3.04996 3.31829 0.572167
rclavicle -7.15625e-015 7.15625e-015
rhumerus 32.3729 15.524 -61.9392
rradius 109.443
rwrist -54.0327
rhand -42.4527 18.2375
rfingers 7.12502
rthumb -15.3313 -11.1742
lclavicle -7.15625e-015 7.15625e-015
lhumerus 67.2562 -19.3063 25.8171
lradius 103.91
lwrist 83.1491
lhand -29.1037 43.8803
lfingers 7.12502
lthumb -2.45186 73.8459
rfemur -30.1533 5.08362 24.0226
rtibia 39.5856
rfoot -14.0444 -6.15
rtoes -6.81092
lfemur -27.3083 11.5339 -13.9631
ltibia 45.3861
lfoot -22.2048 17.3073
ltoes -15.6118
